<svg width="318" height="40" viewBox="0 0 318 40" fill="none" xmlns="http://www.w3.org/2000/svg">
<path d="M10.7083 29.25C8.68056 29.25 6.875 28.9028 5.29167 28.2083C3.70833 27.5139 2.45833 26.5694 1.54167 25.375C0.625 24.1528 0.111111 22.7917 0 21.2917H7.04167C7.125 22.0972 7.5 22.75 8.16667 23.25C8.83333 23.75 9.65278 24 10.625 24C11.5139 24 12.1944 23.8333 12.6667 23.5C13.1667 23.1389 13.4167 22.6806 13.4167 22.125C13.4167 21.4583 13.0694 20.9722 12.375 20.6667C11.6806 20.3333 10.5556 19.9722 9 19.5833C7.33333 19.1944 5.94444 18.7917 4.83333 18.375C3.72222 17.9306 2.76389 17.25 1.95833 16.3333C1.15278 15.3889 0.75 14.125 0.75 12.5417C0.75 11.2083 1.11111 10 1.83333 8.91667C2.58333 7.80555 3.66667 6.93055 5.08333 6.29166C6.52778 5.65278 8.23611 5.33333 10.2083 5.33333C13.125 5.33333 15.4167 6.05555 17.0833 7.5C18.7778 8.94444 19.75 10.8611 20 13.25H13.4167C13.3056 12.4444 12.9444 11.8056 12.3333 11.3333C11.75 10.8611 10.9722 10.625 10 10.625C9.16667 10.625 8.52778 10.7917 8.08333 11.125C7.63889 11.4306 7.41667 11.8611 7.41667 12.4167C7.41667 13.0833 7.76389 13.5833 8.45833 13.9167C9.18056 14.25 10.2917 14.5833 11.7917 14.9167C13.5139 15.3611 14.9167 15.8056 16 16.25C17.0833 16.6667 18.0278 17.3611 18.8333 18.3333C19.6667 19.2778 20.0972 20.5556 20.125 22.1667C20.125 23.5278 19.7361 24.75 18.9583 25.8333C18.2083 26.8889 17.1111 27.7222 15.6667 28.3333C14.25 28.9444 12.5972 29.25 10.7083 29.25Z" fill="#41B883"/>
<path d="M35.359 22.875V28.9167H31.734C29.1507 28.9167 27.1368 28.2917 25.6924 27.0417C24.2479 25.7639 23.5257 23.6944 23.5257 20.8333V11.5833H20.6924V5.66667H23.5257V0H30.6507V5.66667H35.3174V11.5833H30.6507V20.9167C30.6507 21.6111 30.8174 22.1111 31.1507 22.4167C31.484 22.7222 32.0396 22.875 32.8174 22.875H35.359Z" fill="#41B883"/>
<path d="M59.1611 16.9167C59.1611 17.5833 59.1195 18.2778 59.0361 19H42.9111C43.0222 20.4444 43.4806 21.5556 44.2861 22.3333C45.1195 23.0833 46.1334 23.4583 47.3278 23.4583C49.1056 23.4583 50.3417 22.7083 51.0361 21.2083H58.6195C58.2306 22.7361 57.5222 24.1111 56.4945 25.3333C55.4945 26.5556 54.2306 27.5139 52.7028 28.2083C51.175 28.9028 49.4667 29.25 47.5778 29.25C45.3 29.25 43.2722 28.7639 41.4945 27.7917C39.7167 26.8194 38.3278 25.4306 37.3278 23.625C36.3278 21.8194 35.8278 19.7083 35.8278 17.2917C35.8278 14.875 36.3139 12.7639 37.2861 10.9583C38.2861 9.15278 39.675 7.76389 41.4528 6.79167C43.2306 5.81944 45.2722 5.33333 47.5778 5.33333C49.8278 5.33333 51.8278 5.80555 53.5778 6.75C55.3278 7.69444 56.6889 9.04167 57.6611 10.7917C58.6611 12.5417 59.1611 14.5833 59.1611 16.9167ZM51.8695 15.0417C51.8695 13.8194 51.4528 12.8472 50.6195 12.125C49.7861 11.4028 48.7445 11.0417 47.4945 11.0417C46.3 11.0417 45.2861 11.3889 44.4528 12.0833C43.6472 12.7778 43.1472 13.7639 42.9528 15.0417H51.8695Z" fill="#41B883"/>
<path d="M67.9616 8.95833C68.656 7.875 69.6144 7 70.8366 6.33333C72.0588 5.66666 73.4894 5.33333 75.1283 5.33333C77.0449 5.33333 78.781 5.81944 80.3366 6.79167C81.8921 7.76389 83.1144 9.15278 84.0033 10.9583C84.9199 12.7639 85.3783 14.8611 85.3783 17.25C85.3783 19.6389 84.9199 21.75 84.0033 23.5833C83.1144 25.3889 81.8921 26.7917 80.3366 27.7917C78.781 28.7639 77.0449 29.25 75.1283 29.25C73.5171 29.25 72.0866 28.9167 70.8366 28.25C69.6144 27.5833 68.656 26.7222 67.9616 25.6667V40H60.8366V5.66667H67.9616V8.95833ZM78.1283 17.25C78.1283 15.4722 77.6283 14.0833 76.6283 13.0833C75.656 12.0556 74.4477 11.5417 73.0033 11.5417C71.5866 11.5417 70.3783 12.0556 69.3783 13.0833C68.406 14.1111 67.9199 15.5139 67.9199 17.2917C67.9199 19.0694 68.406 20.4722 69.3783 21.5C70.3783 22.5278 71.5866 23.0417 73.0033 23.0417C74.4199 23.0417 75.6283 22.5278 76.6283 21.5C77.6283 20.4444 78.1283 19.0278 78.1283 17.25Z" fill="#41B883"/>
<path d="M110.783 5.66667L96.1995 39.9583H88.5329L93.8662 28.125L84.4079 5.66667H92.3662L97.7412 20.2083L103.075 5.66667H110.783Z" fill="#41B883"/>
<line x1="123.283" y1="8" x2="123.283" y2="32" stroke="#41B883"/>
<path d="M153.868 11.392V28H151.684V15.616L146.164 28H144.628L139.084 15.592V28H136.9V11.392H139.252L145.396 25.12L151.54 11.392H153.868ZM169.572 20.92C169.572 21.336 169.548 21.776 169.5 22.24H158.988C159.068 23.536 159.508 24.552 160.308 25.288C161.124 26.008 162.108 26.368 163.26 26.368C164.204 26.368 164.988 26.152 165.612 25.72C166.252 25.272 166.7 24.68 166.956 23.944H169.308C168.956 25.208 168.252 26.24 167.196 27.04C166.14 27.824 164.828 28.216 163.26 28.216C162.012 28.216 160.892 27.936 159.9 27.376C158.924 26.816 158.156 26.024 157.596 25C157.036 23.96 156.756 22.76 156.756 21.4C156.756 20.04 157.028 18.848 157.572 17.824C158.116 16.8 158.876 16.016 159.852 15.472C160.844 14.912 161.98 14.632 163.26 14.632C164.508 14.632 165.612 14.904 166.572 15.448C167.532 15.992 168.268 16.744 168.78 17.704C169.308 18.648 169.572 19.72 169.572 20.92ZM167.316 20.464C167.316 19.632 167.132 18.92 166.764 18.328C166.396 17.72 165.892 17.264 165.252 16.96C164.628 16.64 163.932 16.48 163.164 16.48C162.06 16.48 161.116 16.832 160.332 17.536C159.564 18.24 159.124 19.216 159.012 20.464H167.316ZM178.863 14.608C180.463 14.608 181.759 15.096 182.751 16.072C183.743 17.032 184.239 18.424 184.239 20.248V28H182.079V20.56C182.079 19.248 181.751 18.248 181.095 17.56C180.439 16.856 179.543 16.504 178.407 16.504C177.255 16.504 176.335 16.864 175.647 17.584C174.975 18.304 174.639 19.352 174.639 20.728V28H172.455V14.848H174.639V16.72C175.071 16.048 175.655 15.528 176.391 15.16C177.143 14.792 177.967 14.608 178.863 14.608ZM190.471 16.648V24.4C190.471 25.04 190.607 25.496 190.879 25.768C191.151 26.024 191.623 26.152 192.295 26.152H193.903V28H191.935C190.719 28 189.807 27.72 189.199 27.16C188.591 26.6 188.287 25.68 188.287 24.4V16.648H186.583V14.848H188.287V11.536H190.471V14.848H193.903V16.648H190.471ZM202.285 28.216C201.053 28.216 199.933 27.936 198.925 27.376C197.933 26.816 197.149 26.024 196.573 25C196.013 23.96 195.733 22.76 195.733 21.4C195.733 20.056 196.021 18.872 196.597 17.848C197.189 16.808 197.989 16.016 198.997 15.472C200.005 14.912 201.133 14.632 202.381 14.632C203.629 14.632 204.757 14.912 205.765 15.472C206.773 16.016 207.565 16.8 208.141 17.824C208.733 18.848 209.029 20.04 209.029 21.4C209.029 22.76 208.725 23.96 208.117 25C207.525 26.024 206.717 26.816 205.693 27.376C204.669 27.936 203.533 28.216 202.285 28.216ZM202.285 26.296C203.069 26.296 203.805 26.112 204.493 25.744C205.181 25.376 205.733 24.824 206.149 24.088C206.581 23.352 206.797 22.456 206.797 21.4C206.797 20.344 206.589 19.448 206.173 18.712C205.757 17.976 205.213 17.432 204.541 17.08C203.869 16.712 203.141 16.528 202.357 16.528C201.557 16.528 200.821 16.712 200.149 17.08C199.493 17.432 198.965 17.976 198.565 18.712C198.165 19.448 197.965 20.344 197.965 21.4C197.965 22.472 198.157 23.376 198.541 24.112C198.941 24.848 199.469 25.4 200.125 25.768C200.781 26.12 201.501 26.296 202.285 26.296ZM214.084 16.984C214.468 16.232 215.012 15.648 215.716 15.232C216.436 14.816 217.308 14.608 218.332 14.608V16.864H217.756C215.308 16.864 214.084 18.192 214.084 20.848V28H211.9V14.848H214.084V16.984ZM221.982 12.712C221.566 12.712 221.214 12.568 220.926 12.28C220.638 11.992 220.494 11.64 220.494 11.224C220.494 10.808 220.638 10.456 220.926 10.168C221.214 9.88 221.566 9.736 221.982 9.736C222.382 9.736 222.718 9.88 222.99 10.168C223.278 10.456 223.422 10.808 223.422 11.224C223.422 11.64 223.278 11.992 222.99 12.28C222.718 12.568 222.382 12.712 221.982 12.712ZM223.038 14.848V28H220.854V14.848H223.038ZM225.944 21.376C225.944 20.032 226.216 18.856 226.76 17.848C227.304 16.824 228.048 16.032 228.992 15.472C229.952 14.912 231.016 14.632 232.184 14.632C233.336 14.632 234.336 14.88 235.184 15.376C236.032 15.872 236.664 16.496 237.08 17.248V14.848H239.288V28H237.08V25.552C236.648 26.32 236 26.96 235.136 27.472C234.288 27.968 233.296 28.216 232.16 28.216C230.992 28.216 229.936 27.928 228.992 27.352C228.048 26.776 227.304 25.968 226.76 24.928C226.216 23.888 225.944 22.704 225.944 21.376ZM237.08 21.4C237.08 20.408 236.88 19.544 236.48 18.808C236.08 18.072 235.536 17.512 234.848 17.128C234.176 16.728 233.432 16.528 232.616 16.528C231.8 16.528 231.056 16.72 230.384 17.104C229.712 17.488 229.176 18.048 228.776 18.784C228.376 19.52 228.176 20.384 228.176 21.376C228.176 22.384 228.376 23.264 228.776 24.016C229.176 24.752 229.712 25.32 230.384 25.72C231.056 26.104 231.8 26.296 232.616 26.296C233.432 26.296 234.176 26.104 234.848 25.72C235.536 25.32 236.08 24.752 236.48 24.016C236.88 23.264 237.08 22.392 237.08 21.4ZM263.201 11.272L256.889 28H254.369L248.057 11.272H250.385L255.641 25.696L260.897 11.272H263.201ZM277.26 14.848V28H275.076V26.056C274.66 26.728 274.076 27.256 273.324 27.64C272.588 28.008 271.772 28.192 270.876 28.192C269.852 28.192 268.932 27.984 268.116 27.568C267.3 27.136 266.652 26.496 266.172 25.648C265.708 24.8 265.476 23.768 265.476 22.552V14.848H267.636V22.264C267.636 23.56 267.964 24.56 268.62 25.264C269.276 25.952 270.172 26.296 271.308 26.296C272.476 26.296 273.396 25.936 274.068 25.216C274.74 24.496 275.076 23.448 275.076 22.072V14.848H277.26ZM292.947 20.92C292.947 21.336 292.923 21.776 292.875 22.24H282.363C282.443 23.536 282.883 24.552 283.683 25.288C284.499 26.008 285.483 26.368 286.635 26.368C287.579 26.368 288.363 26.152 288.987 25.72C289.627 25.272 290.075 24.68 290.331 23.944H292.683C292.331 25.208 291.627 26.24 290.571 27.04C289.515 27.824 288.203 28.216 286.635 28.216C285.387 28.216 284.267 27.936 283.275 27.376C282.299 26.816 281.531 26.024 280.971 25C280.411 23.96 280.131 22.76 280.131 21.4C280.131 20.04 280.403 18.848 280.947 17.824C281.491 16.8 282.251 16.016 283.227 15.472C284.219 14.912 285.355 14.632 286.635 14.632C287.883 14.632 288.987 14.904 289.947 15.448C290.907 15.992 291.643 16.744 292.155 17.704C292.683 18.648 292.947 19.72 292.947 20.92ZM290.691 20.464C290.691 19.632 290.507 18.92 290.139 18.328C289.771 17.72 289.267 17.264 288.627 16.96C288.003 16.64 287.307 16.48 286.539 16.48C285.435 16.48 284.491 16.832 283.707 17.536C282.939 18.24 282.499 19.216 282.387 20.464H290.691ZM296.526 28.144C296.11 28.144 295.758 28 295.47 27.712C295.182 27.424 295.038 27.072 295.038 26.656C295.038 26.24 295.182 25.888 295.47 25.6C295.758 25.312 296.11 25.168 296.526 25.168C296.926 25.168 297.262 25.312 297.534 25.6C297.822 25.888 297.966 26.24 297.966 26.656C297.966 27.072 297.822 27.424 297.534 27.712C297.262 28 296.926 28.144 296.526 28.144ZM302.045 12.712C301.629 12.712 301.277 12.568 300.989 12.28C300.717 11.992 300.581 11.64 300.581 11.224C300.581 10.808 300.717 10.456 300.989 10.168C301.277 9.88 301.629 9.736 302.045 9.736C302.461 9.736 302.805 9.88 303.077 10.168C303.365 10.456 303.509 10.808 303.509 11.224C303.509 11.64 303.365 11.992 303.077 12.28C302.805 12.568 302.461 12.712 302.045 12.712ZM303.125 30.856C303.125 32.024 302.829 32.88 302.237 33.424C301.645 33.968 300.781 34.24 299.645 34.24H298.373V32.392H299.285C299.893 32.392 300.317 32.272 300.557 32.032C300.813 31.792 300.941 31.384 300.941 30.808V14.848H303.125V30.856ZM311.478 28.216C310.47 28.216 309.566 28.048 308.766 27.712C307.966 27.36 307.334 26.88 306.87 26.272C306.406 25.648 306.15 24.936 306.102 24.136H308.358C308.422 24.792 308.726 25.328 309.27 25.744C309.83 26.16 310.558 26.368 311.454 26.368C312.286 26.368 312.942 26.184 313.422 25.816C313.902 25.448 314.142 24.984 314.142 24.424C314.142 23.848 313.886 23.424 313.374 23.152C312.862 22.864 312.07 22.584 310.998 22.312C310.022 22.056 309.222 21.8 308.598 21.544C307.99 21.272 307.462 20.88 307.014 20.368C306.582 19.84 306.366 19.152 306.366 18.304C306.366 17.632 306.566 17.016 306.966 16.456C307.366 15.896 307.934 15.456 308.67 15.136C309.406 14.8 310.246 14.632 311.19 14.632C312.646 14.632 313.822 15 314.718 15.736C315.614 16.472 316.094 17.48 316.158 18.76H313.974C313.926 18.072 313.646 17.52 313.134 17.104C312.638 16.688 311.966 16.48 311.118 16.48C310.334 16.48 309.71 16.648 309.246 16.984C308.782 17.32 308.55 17.76 308.55 18.304C308.55 18.736 308.686 19.096 308.958 19.384C309.246 19.656 309.598 19.88 310.014 20.056C310.446 20.216 311.038 20.4 311.79 20.608C312.734 20.864 313.502 21.12 314.094 21.376C314.686 21.616 315.19 21.984 315.606 22.48C316.038 22.976 316.262 23.624 316.278 24.424C316.278 25.144 316.078 25.792 315.678 26.368C315.278 26.944 314.71 27.4 313.974 27.736C313.254 28.056 312.422 28.216 311.478 28.216Z" fill="#F8FAFC"/>
</svg>
